<svg id="visual" viewBox="0 0 960 540" width="960" height="540" xmlns="http://www.w3.org/2000/svg" xmlns:xlink="http://www.w3.org/1999/xlink" version="1.1"><rect x="0" y="0" width="960" height="540" fill="#001220"></rect><defs><linearGradient id="grad1_0" x1="43.8%" y1="100%" x2="100%" y2="0%"><stop offset="14.444444444444446%" stop-color="#0f172a" stop-opacity="1"></stop><stop offset="85.55555555555554%" stop-color="#0f172a" stop-opacity="1"></stop></linearGradient></defs><defs><linearGradient id="grad1_1" x1="43.8%" y1="100%" x2="100%" y2="0%"><stop offset="14.444444444444446%" stop-color="#0f172a" stop-opacity="1"></stop><stop offset="85.55555555555554%" stop-color="#0a1627" stop-opacity="1"></stop></linearGradient></defs><defs><linearGradient id="grad1_2" x1="43.8%" y1="100%" x2="100%" y2="0%"><stop offset="14.444444444444446%" stop-color="#051424" stop-opacity="1"></stop><stop offset="85.55555555555554%" stop-color="#0a1627" stop-opacity="1"></stop></linearGradient></defs><defs><linearGradient id="grad1_3" x1="43.8%" y1="100%" x2="100%" y2="0%"><stop offset="14.444444444444446%" stop-color="#051424" stop-opacity="1"></stop><stop offset="85.55555555555554%" stop-color="#001220" stop-opacity="1"></stop></linearGradient></defs><defs><linearGradient id="grad2_0" x1="0%" y1="100%" x2="56.3%" y2="0%"><stop offset="14.444444444444446%" stop-color="#0f172a" stop-opacity="1"></stop><stop offset="85.55555555555554%" stop-color="#0f172a" stop-opacity="1"></stop></linearGradient></defs><defs><linearGradient id="grad2_1" x1="0%" y1="100%" x2="56.3%" y2="0%"><stop offset="14.444444444444446%" stop-color="#0a1627" stop-opacity="1"></stop><stop offset="85.55555555555554%" stop-color="#0f172a" stop-opacity="1"></stop></linearGradient></defs><defs><linearGradient id="grad2_2" x1="0%" y1="100%" x2="56.3%" y2="0%"><stop offset="14.444444444444446%" stop-color="#0a1627" stop-opacity="1"></stop><stop offset="85.55555555555554%" stop-color="#051424" stop-opacity="1"></stop></linearGradient></defs><defs><linearGradient id="grad2_3" x1="0%" y1="100%" x2="56.3%" y2="0%"><stop offset="14.444444444444446%" stop-color="#001220" stop-opacity="1"></stop><stop offset="85.55555555555554%" stop-color="#051424" stop-opacity="1"></stop></linearGradient></defs><g transform="translate(960, 540)"><path d="M-432 0C-418.2 -33 -404.4 -66.1 -401.8 -107.7C-399.3 -149.2 -408 -199.3 -374.1 -216C-340.2 -232.7 -263.7 -215.9 -224.2 -224.2C-184.6 -232.4 -182 -265.6 -166.5 -288.4C-151 -311.2 -122.6 -323.6 -92.7 -345.8C-62.8 -368 -31.4 -400 0 -432L0 0Z" fill="#021322"></path><path d="M-324 0C-313.6 -24.8 -303.3 -49.6 -301.4 -80.8C-299.5 -111.9 -306 -149.5 -280.6 -162C-255.2 -174.5 -197.8 -161.9 -168.1 -168.1C-138.4 -174.3 -136.5 -199.2 -124.9 -216.3C-113.2 -233.4 -91.9 -242.7 -69.5 -259.4C-47.1 -276 -23.5 -300 0 -324L0 0Z" fill="#071525"></path><path d="M-216 0C-209.1 -16.5 -202.2 -33 -200.9 -53.8C-199.6 -74.6 -204 -99.7 -187.1 -108C-170.1 -116.3 -131.9 -108 -112.1 -112.1C-92.3 -116.2 -91 -132.8 -83.3 -144.2C-75.5 -155.6 -61.3 -161.8 -46.3 -172.9C-31.4 -184 -15.7 -200 0 -216L0 0Z" fill="#0c1628"></path><path d="M-108 0C-104.5 -8.3 -101.1 -16.5 -100.5 -26.9C-99.8 -37.3 -102 -49.8 -93.5 -54C-85.1 -58.2 -65.9 -54 -56 -56C-46.1 -58.1 -45.5 -66.4 -41.6 -72.1C-37.7 -77.8 -30.6 -80.9 -23.2 -86.5C-15.7 -92 -7.8 -100 0 -108L0 0Z" fill="#0f172a"></path></g><g transform="translate(0, 0)"><path d="M432 0C411.3 34.1 390.6 68.3 374.8 100.4C358.9 132.6 347.9 162.7 329.1 190C310.3 217.3 283.8 241.7 255.3 255.3C226.8 268.9 196.3 271.7 174.5 302.2C152.7 332.8 139.5 391 111.8 417.3C84.2 443.5 42.1 437.8 0 432L0 0Z" fill="#021322"></path><path d="M324 0C308.5 25.6 293 51.2 281.1 75.3C269.2 99.4 260.9 122 246.8 142.5C232.7 163 212.8 181.2 191.4 191.4C170.1 201.7 147.2 203.8 130.9 226.7C114.5 249.6 104.6 293.3 83.9 313C63.1 332.6 31.6 328.3 0 324L0 0Z" fill="#071525"></path><path d="M216 0C205.7 17.1 195.3 34.1 187.4 50.2C179.5 66.3 173.9 81.4 164.5 95C155.1 108.6 141.9 120.8 127.6 127.6C113.4 134.4 98.2 135.9 87.3 151.1C76.3 166.4 69.7 195.5 55.9 208.6C42.1 221.8 21 218.9 0 216L0 0Z" fill="#0c1628"></path><path d="M108 0C102.8 8.5 97.7 17.1 93.7 25.1C89.7 33.1 87 40.7 82.3 47.5C77.6 54.3 70.9 60.4 63.8 63.8C56.7 67.2 49.1 67.9 43.6 75.6C38.2 83.2 34.9 97.8 28 104.3C21 110.9 10.5 109.4 0 108L0 0Z" fill="#0f172a"></path></g></svg>